<mxfile host="app.diagrams.net" modified="2022-09-16T06:54:49.576Z" agent="5.0 (Macintosh; Intel Mac OS X 10_15_7) AppleWebKit/537.36 (KHTML, like Gecko) Chrome/104.0.0.0 Safari/537.36" etag="8O9ndgdp3NIU5A-7F4FU" version="20.2.0" type="github">
  <diagram id="ePx7OT4K4bb6giSOhP_6" name="第 1 页">
    <mxGraphModel dx="837" dy="466" grid="0" gridSize="10" guides="1" tooltips="1" connect="1" arrows="1" fold="1" page="1" pageScale="1" pageWidth="3300" pageHeight="4681" math="0" shadow="0">
      <root>
        <mxCell id="0" />
        <mxCell id="1" parent="0" />
        <mxCell id="j4knS2BvrA4d0UOd4Cyx-6" value="" style="rounded=0;whiteSpace=wrap;html=1;" parent="1" vertex="1">
          <mxGeometry x="255" y="486" width="160" height="120" as="geometry" />
        </mxCell>
        <mxCell id="j4knS2BvrA4d0UOd4Cyx-7" value="" style="rounded=0;whiteSpace=wrap;html=1;" parent="1" vertex="1">
          <mxGeometry x="575" y="486" width="160" height="120" as="geometry" />
        </mxCell>
        <mxCell id="j4knS2BvrA4d0UOd4Cyx-8" value="" style="rounded=0;whiteSpace=wrap;html=1;" parent="1" vertex="1">
          <mxGeometry x="255" y="426" width="160" height="60" as="geometry" />
        </mxCell>
        <mxCell id="j4knS2BvrA4d0UOd4Cyx-9" value="" style="rounded=0;whiteSpace=wrap;html=1;" parent="1" vertex="1">
          <mxGeometry x="575" y="426" width="160" height="60" as="geometry" />
        </mxCell>
        <mxCell id="j4knS2BvrA4d0UOd4Cyx-10" value="" style="rounded=0;whiteSpace=wrap;html=1;" parent="1" vertex="1">
          <mxGeometry x="255" y="360" width="160" height="66" as="geometry" />
        </mxCell>
        <mxCell id="j4knS2BvrA4d0UOd4Cyx-11" value="" style="rounded=0;whiteSpace=wrap;html=1;" parent="1" vertex="1">
          <mxGeometry x="575" y="360" width="160" height="66" as="geometry" />
        </mxCell>
        <mxCell id="j4knS2BvrA4d0UOd4Cyx-13" value="" style="rounded=0;whiteSpace=wrap;html=1;" parent="1" vertex="1">
          <mxGeometry x="255" y="280" width="160" height="80" as="geometry" />
        </mxCell>
        <mxCell id="j4knS2BvrA4d0UOd4Cyx-14" value="" style="rounded=0;whiteSpace=wrap;html=1;" parent="1" vertex="1">
          <mxGeometry x="575" y="280" width="160" height="80" as="geometry" />
        </mxCell>
        <mxCell id="j4knS2BvrA4d0UOd4Cyx-15" value="" style="rounded=0;whiteSpace=wrap;html=1;" parent="1" vertex="1">
          <mxGeometry x="415" y="280" width="160" height="80" as="geometry" />
        </mxCell>
        <mxCell id="j4knS2BvrA4d0UOd4Cyx-16" value="" style="rounded=0;whiteSpace=wrap;html=1;" parent="1" vertex="1">
          <mxGeometry x="415" y="426" width="160" height="60" as="geometry" />
        </mxCell>
        <mxCell id="j4knS2BvrA4d0UOd4Cyx-17" value="" style="rounded=0;whiteSpace=wrap;html=1;" parent="1" vertex="1">
          <mxGeometry x="255" y="180" width="160" height="100" as="geometry" />
        </mxCell>
        <mxCell id="j4knS2BvrA4d0UOd4Cyx-18" value="" style="rounded=0;whiteSpace=wrap;html=1;" parent="1" vertex="1">
          <mxGeometry x="575" y="180" width="160" height="100" as="geometry" />
        </mxCell>
        <mxCell id="j4knS2BvrA4d0UOd4Cyx-19" value="" style="rounded=0;whiteSpace=wrap;html=1;" parent="1" vertex="1">
          <mxGeometry x="415" y="486" width="160" height="120" as="geometry" />
        </mxCell>
        <mxCell id="j4knS2BvrA4d0UOd4Cyx-20" value="" style="rounded=0;whiteSpace=wrap;html=1;" parent="1" vertex="1">
          <mxGeometry x="415" y="180" width="160" height="100" as="geometry" />
        </mxCell>
      </root>
    </mxGraphModel>
  </diagram>
</mxfile>
